<?xml version="1.0" encoding="utf-8"?>
<svg xmlns="http://www.w3.org/2000/svg" viewBox="0 0 48 48" width="25" height="25">
  <path d="M24 4C19.599415 4 16 7.599415 16 12L16 13L11.910156 13C9.2189478 13 6.905125 14.971962 6.4804688 17.630859L3.7597656 34.630859C3.2395506 37.880532 5.738379 40.873486 9 40.988281L9 41.5 A 1.50015 1.50015 0 1 0 12 41.5L12 41L36 41L36 41.5 A 1.50015 1.50015 0 1 0 39 41.5L39 40.988281C42.261621 40.873486 44.76045 37.880532 44.240234 34.630859L41.519531 17.630859C41.093579 14.973792 38.781561 13 36.089844 13L32 13L32 12C32 7.599415 28.400585 4 24 4 z M 24 7C26.779415 7 29 9.220585 29 12L29 13L19 13L19 12C19 9.220585 21.220585 7 24 7 z M 11.910156 16L17.253906 16 A 1.50015 1.50015 0 0 0 17.740234 16L30.253906 16 A 1.50015 1.50015 0 0 0 30.740234 16L36.089844 16C37.328126 16 38.362546 16.882536 38.558594 18.105469L39.425781 23.521484C36.347026 24.359029 29.555971 26 24 26C18.444029 26 11.652973 24.359029 8.5742188 23.521484L9.4414062 18.105469C9.63675 16.882366 10.671365 16 11.910156 16 z M 8.0976562 26.511719C10.913458 27.278946 15.938509 28.481757 21.005859 28.873047 A 3 3 0 0 0 24 32 A 3 3 0 0 0 26.994141 28.873047C32.061491 28.481757 37.086543 27.278946 39.902344 26.511719L41.277344 35.105469C41.524877 36.651753 40.374836 38 38.808594 38L37.746094 38 A 1.50015 1.50015 0 0 0 37.476562 37.978516 A 1.50015 1.50015 0 0 0 37.257812 38L10.746094 38 A 1.50015 1.50015 0 0 0 10.476562 37.978516 A 1.50015 1.50015 0 0 0 10.257812 38L9.1914062 38C7.6251646 38 6.4751235 36.651753 6.7226562 35.105469L8.0976562 26.511719 z" fill="rgb(129, 4, 25)" />
</svg>