<?xml version="1.0" encoding="utf-8"?>
<svg xmlns="http://www.w3.org/2000/svg" viewBox="0 0 26 26" width="26" height="26">
  <path d="M13 4.199219C8.101563 4.199219 4.199219 8.101563 4.199219 13C4.199219 17.898438 8.101563 21.800781 13 21.800781C17.898438 21.800781 21.800781 17.898438 21.800781 13C21.800781 8.101563 17.898438 4.199219 13 4.199219 Z M 13.601563 16.898438L13.601563 18.199219L12.300781 18.199219L12.300781 17C11.398438 17 10.601563 16.699219 10.101563 16.5L10.5 15C11 15.300781 11.800781 15.601563 12.601563 15.601563C13.300781 15.601563 13.800781 15.300781 13.800781 14.800781C13.800781 14.300781 13.398438 14 12.398438 13.699219C11 13.199219 10.101563 12.601563 10.101563 11.300781C10.101563 10.199219 10.898438 9.300781 12.300781 9L12.300781 7.800781L13.601563 7.800781L13.601563 8.898438C14.5 8.898438 15 9.101563 15.5 9.300781L15.101563 10.800781C14.800781 10.601563 14.199219 10.300781 13.199219 10.300781C12.398438 10.300781 12.101563 10.699219 12.101563 11C12.101563 11.398438 12.601563 11.699219 13.601563 12.101563C15.101563 12.601563 15.699219 13.300781 15.699219 14.5C15.898438 15.699219 15.101563 16.699219 13.601563 16.898438Z" fill="rgb(255, 179, 0)" />
</svg>