<?xml version="1.0" encoding="utf-8"?>
<svg xmlns="http://www.w3.org/2000/svg" viewBox="0 0 32 32" width="25" height="25">
  <path d="M12 4C10.35503 4 9 5.3550302 9 7C9 7.3883477 9.2789857 7.6579861 9.4160156 8L4 8L4 9L4 15L5 15L5 28L27 28L27 15L28 15L28 8L22.583984 8C22.721014 7.6579861 23 7.3883477 23 7C23 5.3550302 21.64497 4 20 4C18.251096 4 17.070317 5.3174413 16.291016 6.4257812C16.104666 6.6908118 16.14604 6.7028517 16 6.9511719C15.85396 6.7028517 15.895334 6.6908119 15.708984 6.4257812C14.929683 5.3174413 13.748904 4 12 4 z M 12 6C12.626096 6 13.445317 6.6825587 14.072266 7.5742188C14.220295 7.7847495 14.190362 7.7996831 14.308594 8L12 8C11.43497 8 11 7.5650302 11 7C11 6.4349698 11.43497 6 12 6 z M 20 6C20.56503 6 21 6.4349698 21 7C21 7.5650302 20.56503 8 20 8L17.691406 8C17.809638 7.7996831 17.779705 7.7847496 17.927734 7.5742188C18.554683 6.6825587 19.373904 6 20 6 z M 6 10L12 10L14.513672 10L15 10L15 13L6 13L6 10 z M 17 10L17.486328 10L20 10L26 10L26 13L17 13L17 10 z M 7 15L15 15L15 26L7 26L7 15 z M 17 15L25 15L25 26L17 26L17 15 z" fill="rgb(129, 4, 25)" />
</svg>